<mxfile host="Electron" modified="2023-10-17T11:42:17.921Z" agent="Mozilla/5.0 (Macintosh; Intel Mac OS X 10_15_7) AppleWebKit/537.36 (KHTML, like Gecko) draw.io/22.0.2 Chrome/114.0.5735.289 Electron/25.8.4 Safari/537.36" etag="8AgtTR35X2fNiam7Xnik" version="22.0.2" type="device">
  <diagram name="Side-1" id="mGNd2ImoOXkzEpbA-5RA">
    <mxGraphModel dx="1986" dy="1540" grid="0" gridSize="10" guides="1" tooltips="1" connect="1" arrows="1" fold="1" page="1" pageScale="1" pageWidth="2339" pageHeight="3300" math="0" shadow="0">
      <root>
        <mxCell id="0" />
        <mxCell id="1" parent="0" />
        <mxCell id="iwQ0EJzcMHtjXy3N9g5K-18" value="" style="verticalLabelPosition=bottom;verticalAlign=top;html=1;shadow=0;dashed=0;strokeWidth=1;strokeColor=none;shape=rect;fillColor=#0099cc;" parent="1" vertex="1">
          <mxGeometry x="120" y="1256" width="453" height="103" as="geometry" />
        </mxCell>
        <mxCell id="F3VjtBr4PxaRFsjkiNeD-85" style="edgeStyle=orthogonalEdgeStyle;rounded=0;orthogonalLoop=1;jettySize=auto;html=1;entryX=0;entryY=0.5;entryDx=0;entryDy=0;startArrow=classic;startFill=1;" parent="1" target="F3VjtBr4PxaRFsjkiNeD-52" edge="1">
          <mxGeometry relative="1" as="geometry">
            <Array as="points">
              <mxPoint x="668" y="2232" />
              <mxPoint x="668" y="2495" />
            </Array>
            <mxPoint x="347" y="2232" as="sourcePoint" />
          </mxGeometry>
        </mxCell>
        <mxCell id="iwQ0EJzcMHtjXy3N9g5K-1" value="" style="verticalLabelPosition=bottom;verticalAlign=top;html=1;shadow=0;dashed=0;strokeWidth=1;shape=mxgraph.android.phone2;strokeColor=#000000;" parent="1" vertex="1">
          <mxGeometry x="99" y="1169" width="491" height="961" as="geometry" />
        </mxCell>
        <mxCell id="iwQ0EJzcMHtjXy3N9g5K-5" value="&lt;font style=&quot;font-size: 48px;&quot;&gt;Inspiration&lt;/font&gt;" style="text;html=1;align=center;verticalAlign=middle;resizable=0;points=[];autosize=1;strokeColor=none;fillColor=none;" parent="1" vertex="1">
          <mxGeometry x="225.5" y="1281" width="239" height="70" as="geometry" />
        </mxCell>
        <mxCell id="iwQ0EJzcMHtjXy3N9g5K-20" value="&lt;font style=&quot;font-size: 24px;&quot;&gt;Img&lt;/font&gt;&amp;nbsp;" style="rounded=1;whiteSpace=wrap;html=1;strokeColor=#0099CC;fillColor=#999999;" parent="1" vertex="1">
          <mxGeometry x="215.25" y="1400" width="262.5" height="148" as="geometry" />
        </mxCell>
        <mxCell id="iwQ0EJzcMHtjXy3N9g5K-22" value="" style="strokeWidth=1;html=1;shadow=0;dashed=0;shape=mxgraph.android.rrect;rSize=0;fillColor=#eeeeee;strokeColor=none;" parent="1" vertex="1">
          <mxGeometry x="120" y="1947" width="451" height="95" as="geometry" />
        </mxCell>
        <mxCell id="iwQ0EJzcMHtjXy3N9g5K-23" value="" style="strokeWidth=1;html=1;shadow=0;dashed=0;shape=mxgraph.android.anchor;fontStyle=1;fontColor=#666666;" parent="iwQ0EJzcMHtjXy3N9g5K-22" vertex="1">
          <mxGeometry width="88.57110609480812" height="95" as="geometry" />
        </mxCell>
        <mxCell id="iwQ0EJzcMHtjXy3N9g5K-26" value="" style="strokeWidth=1;html=1;shadow=0;dashed=0;shape=mxgraph.android.anchor;fontStyle=1;fontColor=#666666;" parent="iwQ0EJzcMHtjXy3N9g5K-22" vertex="1">
          <mxGeometry x="225.50000000000003" width="112.75000000000001" height="95" as="geometry" />
        </mxCell>
        <mxCell id="iwQ0EJzcMHtjXy3N9g5K-28" value="" style="shape=line;strokeColor=#666666;direction=south;" parent="iwQ0EJzcMHtjXy3N9g5K-22" vertex="1">
          <mxGeometry x="260.67637544994204" y="15.833333333333332" width="24.37837837837838" height="63.33333333333333" as="geometry" />
        </mxCell>
        <mxCell id="iwQ0EJzcMHtjXy3N9g5K-14" value="" style="html=1;verticalLabelPosition=bottom;align=center;labelBackgroundColor=#ffffff;verticalAlign=top;strokeWidth=2;strokeColor=#0099CC;shadow=0;dashed=0;shape=mxgraph.ios7.icons.user;" parent="iwQ0EJzcMHtjXy3N9g5K-22" vertex="1">
          <mxGeometry x="285.0536181066119" y="28.48733333333332" width="80.62569832402235" height="38.019" as="geometry" />
        </mxCell>
        <mxCell id="iwQ0EJzcMHtjXy3N9g5K-54" value="" style="shape=line;strokeColor=#666666;direction=south;" parent="iwQ0EJzcMHtjXy3N9g5K-22" vertex="1">
          <mxGeometry x="360.99637544994204" y="15.833333333333332" width="24.37837837837838" height="63.33333333333333" as="geometry" />
        </mxCell>
        <mxCell id="iwQ0EJzcMHtjXy3N9g5K-24" value="Tab 2" style="strokeWidth=1;html=1;shadow=0;dashed=0;shape=mxgraph.android.rrect;rSize=0;fontStyle=1;fillColor=#44c5f5;strokeColor=#0099CC;fontColor=#ffffff;" parent="iwQ0EJzcMHtjXy3N9g5K-22" vertex="1">
          <mxGeometry x="88.57" width="95" height="95" as="geometry" />
        </mxCell>
        <mxCell id="iwQ0EJzcMHtjXy3N9g5K-25" value="" style="strokeWidth=1;html=1;shadow=0;dashed=0;shape=mxgraph.android.rrect;rSize=0;fillColor=#33b5e5;strokeColor=none;" parent="iwQ0EJzcMHtjXy3N9g5K-24" vertex="1">
          <mxGeometry y="85.5" width="95" height="9.5" as="geometry" />
        </mxCell>
        <mxCell id="yHVUdNNvavNVG2pUSewv-2" value="" style="html=1;verticalLabelPosition=bottom;align=center;labelBackgroundColor=#ffffff;verticalAlign=top;strokeWidth=2;strokeColor=#0099CC;shadow=0;dashed=0;shape=mxgraph.ios7.icons.globe;" parent="iwQ0EJzcMHtjXy3N9g5K-24" vertex="1">
          <mxGeometry x="21" y="18.740000000000002" width="50" height="60.43" as="geometry" />
        </mxCell>
        <mxCell id="yHVUdNNvavNVG2pUSewv-1" value="" style="html=1;verticalLabelPosition=bottom;align=center;labelBackgroundColor=#ffffff;verticalAlign=top;strokeWidth=2;strokeColor=#0099CC;shadow=0;dashed=0;shape=mxgraph.ios7.icons.home;" parent="iwQ0EJzcMHtjXy3N9g5K-22" vertex="1">
          <mxGeometry x="20" y="23" width="47" height="46" as="geometry" />
        </mxCell>
        <mxCell id="iwQ0EJzcMHtjXy3N9g5K-12" value="" style="html=1;verticalLabelPosition=bottom;align=center;labelBackgroundColor=#ffffff;verticalAlign=top;strokeWidth=2;strokeColor=#0099CC;shadow=0;dashed=0;shape=mxgraph.ios7.icons.compose;" parent="iwQ0EJzcMHtjXy3N9g5K-22" vertex="1">
          <mxGeometry x="195.0044624008474" y="29.064666666666678" width="70.54748603351956" height="39.931666666666665" as="geometry" />
        </mxCell>
        <mxCell id="ET9WmYhNgh9v48bkk3JD-13" value="" style="html=1;verticalLabelPosition=bottom;align=center;labelBackgroundColor=#ffffff;verticalAlign=top;strokeWidth=2;strokeColor=#0099CC;shadow=0;dashed=0;shape=mxgraph.ios7.icons.heart;" vertex="1" parent="iwQ0EJzcMHtjXy3N9g5K-22">
          <mxGeometry x="385.3699999999998" y="28.49000000000001" width="53.63" height="52.19" as="geometry" />
        </mxCell>
        <mxCell id="iwQ0EJzcMHtjXy3N9g5K-62" value="" style="verticalLabelPosition=bottom;verticalAlign=top;html=1;shadow=0;dashed=0;strokeWidth=1;strokeColor=none;shape=rect;fillColor=#0099cc;" parent="1" vertex="1">
          <mxGeometry x="693" y="1256" width="453" height="104" as="geometry" />
        </mxCell>
        <mxCell id="iwQ0EJzcMHtjXy3N9g5K-63" value="" style="verticalLabelPosition=bottom;verticalAlign=top;html=1;shadow=0;dashed=0;strokeWidth=1;shape=mxgraph.android.phone2;strokeColor=#000000;" parent="1" vertex="1">
          <mxGeometry x="672" y="1169" width="491" height="961" as="geometry" />
        </mxCell>
        <mxCell id="iwQ0EJzcMHtjXy3N9g5K-64" value="&lt;span style=&quot;font-size: 48px;&quot;&gt;Create program&lt;/span&gt;" style="text;html=1;align=center;verticalAlign=middle;resizable=0;points=[];autosize=1;strokeColor=none;fillColor=none;" parent="1" vertex="1">
          <mxGeometry x="740.5" y="1281" width="354" height="70" as="geometry" />
        </mxCell>
        <mxCell id="iwQ0EJzcMHtjXy3N9g5K-67" value="" style="strokeWidth=1;html=1;shadow=0;dashed=0;shape=mxgraph.android.rrect;rSize=0;fillColor=#eeeeee;strokeColor=none;" parent="1" vertex="1">
          <mxGeometry x="693" y="1945" width="451" height="99" as="geometry" />
        </mxCell>
        <mxCell id="iwQ0EJzcMHtjXy3N9g5K-74" value="Tab 2" style="strokeWidth=1;html=1;shadow=0;dashed=0;shape=mxgraph.android.rrect;rSize=0;fontStyle=1;fillColor=#44c5f5;strokeColor=none;fontColor=#ffffff;" parent="iwQ0EJzcMHtjXy3N9g5K-67" vertex="1">
          <mxGeometry x="180.9" y="-1.0032" width="95" height="99" as="geometry" />
        </mxCell>
        <mxCell id="iwQ0EJzcMHtjXy3N9g5K-75" value="" style="strokeWidth=1;html=1;shadow=0;dashed=0;shape=mxgraph.android.rrect;rSize=0;fillColor=#33b5e5;strokeColor=none;" parent="iwQ0EJzcMHtjXy3N9g5K-74" vertex="1">
          <mxGeometry y="89.1" width="95" height="9.9" as="geometry" />
        </mxCell>
        <mxCell id="iwQ0EJzcMHtjXy3N9g5K-71" value="" style="html=1;verticalLabelPosition=bottom;align=center;labelBackgroundColor=#ffffff;verticalAlign=top;strokeWidth=2;strokeColor=#0099CC;shadow=0;dashed=0;shape=mxgraph.ios7.icons.compose;" parent="iwQ0EJzcMHtjXy3N9g5K-74" vertex="1">
          <mxGeometry x="17.104462400847467" y="28.677000000000003" width="70.54748603351956" height="41.613" as="geometry" />
        </mxCell>
        <mxCell id="iwQ0EJzcMHtjXy3N9g5K-68" value="" style="strokeWidth=1;html=1;shadow=0;dashed=0;shape=mxgraph.android.anchor;fontStyle=1;fontColor=#666666;" parent="iwQ0EJzcMHtjXy3N9g5K-67" vertex="1">
          <mxGeometry width="88.57110609480812" height="99" as="geometry" />
        </mxCell>
        <mxCell id="iwQ0EJzcMHtjXy3N9g5K-69" value="" style="strokeWidth=1;html=1;shadow=0;dashed=0;shape=mxgraph.android.anchor;fontStyle=1;fontColor=#666666;" parent="iwQ0EJzcMHtjXy3N9g5K-67" vertex="1">
          <mxGeometry x="225.50000000000003" width="112.75000000000001" height="99" as="geometry" />
        </mxCell>
        <mxCell id="iwQ0EJzcMHtjXy3N9g5K-70" value="" style="shape=line;strokeColor=#666666;direction=south;" parent="iwQ0EJzcMHtjXy3N9g5K-67" vertex="1">
          <mxGeometry x="73.62637544994205" y="15.4968" width="24.37837837837838" height="66" as="geometry" />
        </mxCell>
        <mxCell id="iwQ0EJzcMHtjXy3N9g5K-72" value="" style="html=1;verticalLabelPosition=bottom;align=center;labelBackgroundColor=#ffffff;verticalAlign=top;strokeWidth=2;strokeColor=#0099CC;shadow=0;dashed=0;shape=mxgraph.ios7.icons.user;" parent="iwQ0EJzcMHtjXy3N9g5K-67" vertex="1">
          <mxGeometry x="285.0536181066119" y="29.68679999999999" width="80.62569832402235" height="39.619800000000005" as="geometry" />
        </mxCell>
        <mxCell id="iwQ0EJzcMHtjXy3N9g5K-73" value="" style="shape=line;strokeColor=#666666;direction=south;" parent="iwQ0EJzcMHtjXy3N9g5K-67" vertex="1">
          <mxGeometry x="360.99637544994204" y="16.5" width="24.37837837837838" height="66" as="geometry" />
        </mxCell>
        <mxCell id="F3VjtBr4PxaRFsjkiNeD-1" value="" style="html=1;verticalLabelPosition=bottom;align=center;labelBackgroundColor=#ffffff;verticalAlign=top;strokeWidth=2;strokeColor=#0099CC;shadow=0;dashed=0;shape=mxgraph.ios7.icons.home;" parent="iwQ0EJzcMHtjXy3N9g5K-67" vertex="1">
          <mxGeometry x="20.789999999999964" y="23.289999999999964" width="47" height="46" as="geometry" />
        </mxCell>
        <mxCell id="ET9WmYhNgh9v48bkk3JD-1" value="" style="html=1;verticalLabelPosition=bottom;align=center;labelBackgroundColor=#ffffff;verticalAlign=top;strokeWidth=2;strokeColor=#0099CC;shadow=0;dashed=0;shape=mxgraph.ios7.icons.globe;" vertex="1" parent="iwQ0EJzcMHtjXy3N9g5K-67">
          <mxGeometry x="108" y="21.069999999999936" width="50" height="60.43" as="geometry" />
        </mxCell>
        <mxCell id="ET9WmYhNgh9v48bkk3JD-12" value="" style="html=1;verticalLabelPosition=bottom;align=center;labelBackgroundColor=#ffffff;verticalAlign=top;strokeWidth=2;strokeColor=#0099CC;shadow=0;dashed=0;shape=mxgraph.ios7.icons.heart;" vertex="1" parent="iwQ0EJzcMHtjXy3N9g5K-67">
          <mxGeometry x="385.3699999999999" y="29.309999999999945" width="53.63" height="52.19" as="geometry" />
        </mxCell>
        <mxCell id="iwQ0EJzcMHtjXy3N9g5K-81" value="" style="verticalLabelPosition=bottom;verticalAlign=top;html=1;shadow=0;dashed=0;strokeWidth=1;strokeColor=none;shape=rect;fillColor=#0099cc;" parent="1" vertex="1">
          <mxGeometry x="956" y="131" width="453" height="97" as="geometry" />
        </mxCell>
        <mxCell id="iwQ0EJzcMHtjXy3N9g5K-82" value="" style="verticalLabelPosition=bottom;verticalAlign=top;html=1;shadow=0;dashed=0;strokeWidth=1;shape=mxgraph.android.phone2;strokeColor=#000000;" parent="1" vertex="1">
          <mxGeometry x="935" y="44" width="491" height="961" as="geometry" />
        </mxCell>
        <mxCell id="iwQ0EJzcMHtjXy3N9g5K-83" value="&lt;font style=&quot;font-size: 48px;&quot;&gt;Training&lt;/font&gt;" style="text;html=1;align=center;verticalAlign=middle;resizable=0;points=[];autosize=1;strokeColor=none;fillColor=none;" parent="1" vertex="1">
          <mxGeometry x="1085.5" y="156" width="190" height="70" as="geometry" />
        </mxCell>
        <mxCell id="iwQ0EJzcMHtjXy3N9g5K-86" value="" style="strokeWidth=1;html=1;shadow=0;dashed=0;shape=mxgraph.android.rrect;rSize=0;fillColor=#eeeeee;strokeColor=none;" parent="1" vertex="1">
          <mxGeometry x="956" y="816" width="451" height="103" as="geometry" />
        </mxCell>
        <mxCell id="iwQ0EJzcMHtjXy3N9g5K-87" value="" style="strokeWidth=1;html=1;shadow=0;dashed=0;shape=mxgraph.android.anchor;fontStyle=1;fontColor=#666666;" parent="iwQ0EJzcMHtjXy3N9g5K-86" vertex="1">
          <mxGeometry width="88.57110609480812" height="103" as="geometry" />
        </mxCell>
        <mxCell id="iwQ0EJzcMHtjXy3N9g5K-88" value="" style="strokeWidth=1;html=1;shadow=0;dashed=0;shape=mxgraph.android.anchor;fontStyle=1;fontColor=#666666;" parent="iwQ0EJzcMHtjXy3N9g5K-86" vertex="1">
          <mxGeometry x="225.50000000000003" width="112.75000000000001" height="103" as="geometry" />
        </mxCell>
        <mxCell id="iwQ0EJzcMHtjXy3N9g5K-89" value="" style="shape=line;strokeColor=#666666;direction=south;" parent="iwQ0EJzcMHtjXy3N9g5K-86" vertex="1">
          <mxGeometry x="260.67637544994204" y="17.166666666666668" width="24.37837837837838" height="68.66666666666667" as="geometry" />
        </mxCell>
        <mxCell id="iwQ0EJzcMHtjXy3N9g5K-90" value="" style="html=1;verticalLabelPosition=bottom;align=center;labelBackgroundColor=#ffffff;verticalAlign=top;strokeWidth=2;strokeColor=#0099CC;shadow=0;dashed=0;shape=mxgraph.ios7.icons.compose;" parent="iwQ0EJzcMHtjXy3N9g5K-86" vertex="1">
          <mxGeometry x="193.12446240084745" y="28.81253333333335" width="70.54748603351956" height="43.29433333333333" as="geometry" />
        </mxCell>
        <mxCell id="iwQ0EJzcMHtjXy3N9g5K-91" value="" style="html=1;verticalLabelPosition=bottom;align=center;labelBackgroundColor=#ffffff;verticalAlign=top;strokeWidth=2;strokeColor=#0099CC;shadow=0;dashed=0;shape=mxgraph.ios7.icons.user;" parent="iwQ0EJzcMHtjXy3N9g5K-86" vertex="1">
          <mxGeometry x="285.0536181066119" y="30.886266666666653" width="80.62569832402235" height="41.2206" as="geometry" />
        </mxCell>
        <mxCell id="iwQ0EJzcMHtjXy3N9g5K-92" value="" style="shape=line;strokeColor=#666666;direction=south;" parent="iwQ0EJzcMHtjXy3N9g5K-86" vertex="1">
          <mxGeometry x="360.99637544994204" y="17.166666666666668" width="24.37837837837838" height="68.66666666666667" as="geometry" />
        </mxCell>
        <mxCell id="iwQ0EJzcMHtjXy3N9g5K-93" value="Tab 2" style="strokeWidth=1;html=1;shadow=0;dashed=0;shape=mxgraph.android.rrect;rSize=0;fontStyle=1;fillColor=#44c5f5;strokeColor=none;fontColor=#ffffff;" parent="iwQ0EJzcMHtjXy3N9g5K-86" vertex="1">
          <mxGeometry x="-7.105427357601002e-15" y="-1.0437333333333334" width="95" height="103" as="geometry" />
        </mxCell>
        <mxCell id="iwQ0EJzcMHtjXy3N9g5K-94" value="" style="strokeWidth=1;html=1;shadow=0;dashed=0;shape=mxgraph.android.rrect;rSize=0;fillColor=#33b5e5;strokeColor=none;" parent="iwQ0EJzcMHtjXy3N9g5K-93" vertex="1">
          <mxGeometry y="92.7" width="95" height="10.299999999999999" as="geometry" />
        </mxCell>
        <mxCell id="F3VjtBr4PxaRFsjkiNeD-4" value="" style="html=1;verticalLabelPosition=bottom;align=center;labelBackgroundColor=#ffffff;verticalAlign=top;strokeWidth=2;strokeColor=#0099CC;shadow=0;dashed=0;shape=mxgraph.ios7.icons.home;" parent="iwQ0EJzcMHtjXy3N9g5K-93" vertex="1">
          <mxGeometry x="20.789999999999992" y="25.04373333333342" width="47" height="46" as="geometry" />
        </mxCell>
        <mxCell id="iwQ0EJzcMHtjXy3N9g5K-115" value="" style="shape=line;strokeColor=#666666;direction=south;" parent="iwQ0EJzcMHtjXy3N9g5K-86" vertex="1">
          <mxGeometry x="171.99637544994204" y="17.152933333333344" width="24.37837837837838" height="68.66666666666667" as="geometry" />
        </mxCell>
        <mxCell id="ET9WmYhNgh9v48bkk3JD-2" value="" style="html=1;verticalLabelPosition=bottom;align=center;labelBackgroundColor=#ffffff;verticalAlign=top;strokeWidth=2;strokeColor=#0099CC;shadow=0;dashed=0;shape=mxgraph.ios7.icons.globe;" vertex="1" parent="iwQ0EJzcMHtjXy3N9g5K-86">
          <mxGeometry x="115" y="30.889999999999986" width="50" height="60.43" as="geometry" />
        </mxCell>
        <mxCell id="ET9WmYhNgh9v48bkk3JD-7" value="" style="html=1;verticalLabelPosition=bottom;align=center;labelBackgroundColor=#ffffff;verticalAlign=top;strokeWidth=2;strokeColor=#0099CC;shadow=0;dashed=0;shape=mxgraph.ios7.icons.heart;" vertex="1" parent="iwQ0EJzcMHtjXy3N9g5K-86">
          <mxGeometry x="385.37" y="25.41" width="53.63" height="52.19" as="geometry" />
        </mxCell>
        <mxCell id="iwQ0EJzcMHtjXy3N9g5K-98" value="" style="verticalLabelPosition=bottom;verticalAlign=top;html=1;shadow=0;dashed=0;strokeWidth=1;strokeColor=none;shape=rect;fillColor=#0099cc;" parent="1" vertex="1">
          <mxGeometry x="1822" y="1261" width="453" height="97" as="geometry" />
        </mxCell>
        <mxCell id="F3VjtBr4PxaRFsjkiNeD-88" style="edgeStyle=orthogonalEdgeStyle;rounded=0;orthogonalLoop=1;jettySize=auto;html=1;entryX=1;entryY=0.5;entryDx=0;entryDy=0;startArrow=classic;startFill=1;" parent="1" target="F3VjtBr4PxaRFsjkiNeD-52" edge="1">
          <mxGeometry relative="1" as="geometry">
            <Array as="points">
              <mxPoint x="1971" y="2228" />
              <mxPoint x="1572" y="2228" />
              <mxPoint x="1572" y="2495" />
            </Array>
            <mxPoint x="2042" y="2228" as="sourcePoint" />
          </mxGeometry>
        </mxCell>
        <mxCell id="iwQ0EJzcMHtjXy3N9g5K-99" value="" style="verticalLabelPosition=bottom;verticalAlign=top;html=1;shadow=0;dashed=0;strokeWidth=1;shape=mxgraph.android.phone2;strokeColor=#000000;" parent="1" vertex="1">
          <mxGeometry x="1801" y="1174" width="491" height="961" as="geometry" />
        </mxCell>
        <mxCell id="iwQ0EJzcMHtjXy3N9g5K-100" value="&lt;font style=&quot;font-size: 48px;&quot;&gt;Statistics&lt;/font&gt;" style="text;html=1;align=center;verticalAlign=middle;resizable=0;points=[];autosize=1;strokeColor=none;fillColor=none;" parent="1" vertex="1">
          <mxGeometry x="1941.5" y="1286" width="210" height="70" as="geometry" />
        </mxCell>
        <mxCell id="iwQ0EJzcMHtjXy3N9g5K-103" value="" style="strokeWidth=1;html=1;shadow=0;dashed=0;shape=mxgraph.android.rrect;rSize=0;fillColor=#eeeeee;strokeColor=none;" parent="1" vertex="1">
          <mxGeometry x="1822" y="1950" width="451" height="99" as="geometry" />
        </mxCell>
        <mxCell id="iwQ0EJzcMHtjXy3N9g5K-104" value="Tab 2" style="strokeWidth=1;html=1;shadow=0;dashed=0;shape=mxgraph.android.rrect;rSize=0;fontStyle=1;fillColor=#44c5f5;strokeColor=none;fontColor=#ffffff;" parent="iwQ0EJzcMHtjXy3N9g5K-103" vertex="1">
          <mxGeometry x="372" y="-1.0032" width="79" height="99" as="geometry" />
        </mxCell>
        <mxCell id="iwQ0EJzcMHtjXy3N9g5K-105" value="" style="strokeWidth=1;html=1;shadow=0;dashed=0;shape=mxgraph.android.rrect;rSize=0;fillColor=#33b5e5;strokeColor=none;" parent="iwQ0EJzcMHtjXy3N9g5K-104" vertex="1">
          <mxGeometry y="89.10000000000001" width="79" height="9.9" as="geometry" />
        </mxCell>
        <mxCell id="ET9WmYhNgh9v48bkk3JD-10" value="" style="html=1;verticalLabelPosition=bottom;align=center;labelBackgroundColor=#ffffff;verticalAlign=top;strokeWidth=2;strokeColor=#0099CC;shadow=0;dashed=0;shape=mxgraph.ios7.icons.heart;" vertex="1" parent="iwQ0EJzcMHtjXy3N9g5K-104">
          <mxGeometry x="14.6899999999996" y="30.31320000000005" width="53.63" height="52.19" as="geometry" />
        </mxCell>
        <mxCell id="iwQ0EJzcMHtjXy3N9g5K-107" value="" style="strokeWidth=1;html=1;shadow=0;dashed=0;shape=mxgraph.android.anchor;fontStyle=1;fontColor=#666666;" parent="iwQ0EJzcMHtjXy3N9g5K-103" vertex="1">
          <mxGeometry width="88.57110609480812" height="99" as="geometry" />
        </mxCell>
        <mxCell id="iwQ0EJzcMHtjXy3N9g5K-108" value="" style="strokeWidth=1;html=1;shadow=0;dashed=0;shape=mxgraph.android.anchor;fontStyle=1;fontColor=#666666;" parent="iwQ0EJzcMHtjXy3N9g5K-103" vertex="1">
          <mxGeometry x="225.50000000000003" width="112.75000000000001" height="99" as="geometry" />
        </mxCell>
        <mxCell id="iwQ0EJzcMHtjXy3N9g5K-109" value="" style="shape=line;strokeColor=#666666;direction=south;" parent="iwQ0EJzcMHtjXy3N9g5K-103" vertex="1">
          <mxGeometry x="73.62637544994205" y="15.4968" width="24.37837837837838" height="66" as="geometry" />
        </mxCell>
        <mxCell id="iwQ0EJzcMHtjXy3N9g5K-110" value="" style="html=1;verticalLabelPosition=bottom;align=center;labelBackgroundColor=#ffffff;verticalAlign=top;strokeWidth=2;strokeColor=#0099CC;shadow=0;dashed=0;shape=mxgraph.ios7.icons.user;" parent="iwQ0EJzcMHtjXy3N9g5K-103" vertex="1">
          <mxGeometry x="285.0536181066119" y="29.68679999999999" width="80.62569832402235" height="39.619800000000005" as="geometry" />
        </mxCell>
        <mxCell id="iwQ0EJzcMHtjXy3N9g5K-111" value="" style="shape=line;strokeColor=#666666;direction=south;" parent="iwQ0EJzcMHtjXy3N9g5K-103" vertex="1">
          <mxGeometry x="256.99637544994204" y="15.4968" width="24.37837837837838" height="66" as="geometry" />
        </mxCell>
        <mxCell id="iwQ0EJzcMHtjXy3N9g5K-106" value="" style="html=1;verticalLabelPosition=bottom;align=center;labelBackgroundColor=#ffffff;verticalAlign=top;strokeWidth=2;strokeColor=#0099CC;shadow=0;dashed=0;shape=mxgraph.ios7.icons.compose;" parent="iwQ0EJzcMHtjXy3N9g5K-103" vertex="1">
          <mxGeometry x="190.22446240084747" y="28.683600000000016" width="70.54748603351956" height="41.613" as="geometry" />
        </mxCell>
        <mxCell id="iwQ0EJzcMHtjXy3N9g5K-116" value="" style="shape=line;strokeColor=#666666;direction=south;" parent="iwQ0EJzcMHtjXy3N9g5K-103" vertex="1">
          <mxGeometry x="165.846375449942" y="15.496800000000013" width="24.37837837837838" height="66" as="geometry" />
        </mxCell>
        <mxCell id="F3VjtBr4PxaRFsjkiNeD-2" value="" style="html=1;verticalLabelPosition=bottom;align=center;labelBackgroundColor=#ffffff;verticalAlign=top;strokeWidth=2;strokeColor=#0099CC;shadow=0;dashed=0;shape=mxgraph.ios7.icons.home;" parent="iwQ0EJzcMHtjXy3N9g5K-103" vertex="1">
          <mxGeometry x="9" y="29.690000000000055" width="47" height="46" as="geometry" />
        </mxCell>
        <mxCell id="ET9WmYhNgh9v48bkk3JD-4" value="" style="html=1;verticalLabelPosition=bottom;align=center;labelBackgroundColor=#ffffff;verticalAlign=top;strokeWidth=2;strokeColor=#0099CC;shadow=0;dashed=0;shape=mxgraph.ios7.icons.globe;" vertex="1" parent="iwQ0EJzcMHtjXy3N9g5K-103">
          <mxGeometry x="101" y="22.470000000000027" width="50" height="60.43" as="geometry" />
        </mxCell>
        <mxCell id="iwQ0EJzcMHtjXy3N9g5K-117" value="" style="verticalLabelPosition=bottom;verticalAlign=top;html=1;shadow=0;dashed=0;strokeWidth=1;strokeColor=none;shape=rect;fillColor=#0099cc;" parent="1" vertex="1">
          <mxGeometry x="1256" y="1261" width="453" height="99" as="geometry" />
        </mxCell>
        <mxCell id="iwQ0EJzcMHtjXy3N9g5K-118" value="" style="verticalLabelPosition=bottom;verticalAlign=top;html=1;shadow=0;dashed=0;strokeWidth=1;shape=mxgraph.android.phone2;strokeColor=#000000;" parent="1" vertex="1">
          <mxGeometry x="1235" y="1174" width="491" height="961" as="geometry" />
        </mxCell>
        <mxCell id="iwQ0EJzcMHtjXy3N9g5K-119" value="&lt;font style=&quot;font-size: 48px;&quot;&gt;Personal data&lt;/font&gt;" style="text;html=1;align=center;verticalAlign=middle;resizable=0;points=[];autosize=1;strokeColor=none;fillColor=none;" parent="1" vertex="1">
          <mxGeometry x="1323.5" y="1286" width="314" height="70" as="geometry" />
        </mxCell>
        <mxCell id="iwQ0EJzcMHtjXy3N9g5K-122" value="" style="strokeWidth=1;html=1;shadow=0;dashed=0;shape=mxgraph.android.rrect;rSize=0;fillColor=#eeeeee;strokeColor=none;" parent="1" vertex="1">
          <mxGeometry x="1256" y="1946" width="451" height="103" as="geometry" />
        </mxCell>
        <mxCell id="iwQ0EJzcMHtjXy3N9g5K-123" value="Tab 2" style="strokeWidth=1;html=1;shadow=0;dashed=0;shape=mxgraph.android.rrect;rSize=0;fontStyle=1;fillColor=#44c5f5;strokeColor=none;fontColor=#ffffff;" parent="iwQ0EJzcMHtjXy3N9g5K-122" vertex="1">
          <mxGeometry x="277.87" y="-0.01373333333333426" width="95" height="103" as="geometry" />
        </mxCell>
        <mxCell id="iwQ0EJzcMHtjXy3N9g5K-124" value="" style="strokeWidth=1;html=1;shadow=0;dashed=0;shape=mxgraph.android.rrect;rSize=0;fillColor=#33b5e5;strokeColor=none;" parent="iwQ0EJzcMHtjXy3N9g5K-123" vertex="1">
          <mxGeometry y="92.7" width="95" height="10.299999999999999" as="geometry" />
        </mxCell>
        <mxCell id="iwQ0EJzcMHtjXy3N9g5K-126" value="" style="strokeWidth=1;html=1;shadow=0;dashed=0;shape=mxgraph.android.anchor;fontStyle=1;fontColor=#666666;" parent="iwQ0EJzcMHtjXy3N9g5K-122" vertex="1">
          <mxGeometry width="88.57110609480812" height="103" as="geometry" />
        </mxCell>
        <mxCell id="iwQ0EJzcMHtjXy3N9g5K-127" value="" style="strokeWidth=1;html=1;shadow=0;dashed=0;shape=mxgraph.android.anchor;fontStyle=1;fontColor=#666666;" parent="iwQ0EJzcMHtjXy3N9g5K-122" vertex="1">
          <mxGeometry x="225.50000000000003" width="112.75000000000001" height="103" as="geometry" />
        </mxCell>
        <mxCell id="iwQ0EJzcMHtjXy3N9g5K-128" value="" style="shape=line;strokeColor=#666666;direction=south;" parent="iwQ0EJzcMHtjXy3N9g5K-122" vertex="1">
          <mxGeometry x="73.62637544994205" y="16.122933333333332" width="24.37837837837838" height="68.66666666666667" as="geometry" />
        </mxCell>
        <mxCell id="iwQ0EJzcMHtjXy3N9g5K-129" value="" style="html=1;verticalLabelPosition=bottom;align=center;labelBackgroundColor=#ffffff;verticalAlign=top;strokeWidth=2;strokeColor=#0099CC;shadow=0;dashed=0;shape=mxgraph.ios7.icons.user;" parent="iwQ0EJzcMHtjXy3N9g5K-122" vertex="1">
          <mxGeometry x="285.0536181066119" y="30.886266666666653" width="80.62569832402235" height="41.2206" as="geometry" />
        </mxCell>
        <mxCell id="iwQ0EJzcMHtjXy3N9g5K-130" value="" style="shape=line;strokeColor=#666666;direction=south;" parent="iwQ0EJzcMHtjXy3N9g5K-122" vertex="1">
          <mxGeometry x="172.30637544994207" y="16.1092" width="24.37837837837838" height="68.66666666666667" as="geometry" />
        </mxCell>
        <mxCell id="iwQ0EJzcMHtjXy3N9g5K-125" value="" style="html=1;verticalLabelPosition=bottom;align=center;labelBackgroundColor=#ffffff;verticalAlign=top;strokeWidth=2;strokeColor=#0099CC;shadow=0;dashed=0;shape=mxgraph.ios7.icons.compose;" parent="iwQ0EJzcMHtjXy3N9g5K-122" vertex="1">
          <mxGeometry x="199.00446240084747" y="28.791933333333336" width="70.54748603351956" height="43.29433333333333" as="geometry" />
        </mxCell>
        <mxCell id="F3VjtBr4PxaRFsjkiNeD-3" value="" style="html=1;verticalLabelPosition=bottom;align=center;labelBackgroundColor=#ffffff;verticalAlign=top;strokeWidth=2;strokeColor=#0099CC;shadow=0;dashed=0;shape=mxgraph.ios7.icons.home;" parent="iwQ0EJzcMHtjXy3N9g5K-122" vertex="1">
          <mxGeometry x="20.789999999999964" y="30.889999999999986" width="47" height="46" as="geometry" />
        </mxCell>
        <mxCell id="ET9WmYhNgh9v48bkk3JD-5" value="" style="html=1;verticalLabelPosition=bottom;align=center;labelBackgroundColor=#ffffff;verticalAlign=top;strokeWidth=2;strokeColor=#0099CC;shadow=0;dashed=0;shape=mxgraph.ios7.icons.globe;" vertex="1" parent="iwQ0EJzcMHtjXy3N9g5K-122">
          <mxGeometry x="106" y="27" width="50" height="60.43" as="geometry" />
        </mxCell>
        <mxCell id="ET9WmYhNgh9v48bkk3JD-11" value="" style="html=1;verticalLabelPosition=bottom;align=center;labelBackgroundColor=#ffffff;verticalAlign=top;strokeWidth=2;strokeColor=#0099CC;shadow=0;dashed=0;shape=mxgraph.ios7.icons.heart;" vertex="1" parent="iwQ0EJzcMHtjXy3N9g5K-122">
          <mxGeometry x="384.9999999999998" y="27" width="53.63" height="52.19" as="geometry" />
        </mxCell>
        <mxCell id="iwQ0EJzcMHtjXy3N9g5K-136" value="&lt;font style=&quot;font-size: 18px;&quot;&gt;Squats&lt;/font&gt;" style="whiteSpace=wrap;html=1;shadow=0;dashed=0;fontSize=10;align=left;fillColor=#006699;strokeColor=#33B5E5;fontColor=#FFFFFF;" parent="1" vertex="1">
          <mxGeometry x="225.5" y="1556" width="250.5" height="16.88" as="geometry" />
        </mxCell>
        <mxCell id="iwQ0EJzcMHtjXy3N9g5K-152" value="&lt;font style=&quot;font-size: 18px;&quot;&gt;Category&lt;/font&gt;" style="strokeWidth=1;html=1;shadow=0;dashed=0;shape=mxgraph.android.action_bar;fillColor=#E6E6E6;strokeColor=#c0c0c0;strokeWidth=2;whiteSpace=wrap;" parent="1" vertex="1">
          <mxGeometry x="824.5" y="1515" width="190" height="50" as="geometry" />
        </mxCell>
        <mxCell id="iwQ0EJzcMHtjXy3N9g5K-154" value="&lt;font style=&quot;font-size: 18px;&quot;&gt;Program name&lt;/font&gt;" style="whiteSpace=wrap;html=1;shadow=0;dashed=0;fontSize=10;align=left;fillColor=#E6E6E6;strokeColor=#f6f6f6;fontColor=#4D4D4D;fontStyle=0" parent="1" vertex="1">
          <mxGeometry x="822.5" y="1430" width="190" height="50" as="geometry" />
        </mxCell>
        <mxCell id="iwQ0EJzcMHtjXy3N9g5K-155" value="&lt;font style=&quot;font-size: 18px;&quot;&gt;Sets&lt;/font&gt;" style="whiteSpace=wrap;html=1;shadow=0;dashed=0;fontSize=10;align=left;fillColor=#E6E6E6;strokeColor=#f6f6f6;fontColor=#4D4D4D;fontStyle=0" parent="1" vertex="1">
          <mxGeometry x="823.5" y="1600" width="190" height="50" as="geometry" />
        </mxCell>
        <mxCell id="iwQ0EJzcMHtjXy3N9g5K-156" value="&lt;font style=&quot;font-size: 18px;&quot;&gt;Weight&lt;/font&gt;" style="whiteSpace=wrap;html=1;shadow=0;dashed=0;fontSize=10;align=left;fillColor=#E6E6E6;strokeColor=#f6f6f6;fontColor=#4D4D4D;fontStyle=0" parent="1" vertex="1">
          <mxGeometry x="822.5" y="1779" width="190" height="50" as="geometry" />
        </mxCell>
        <mxCell id="iwQ0EJzcMHtjXy3N9g5K-157" value="&lt;font style=&quot;font-size: 18px;&quot;&gt;Reputations&lt;/font&gt;" style="whiteSpace=wrap;html=1;shadow=0;dashed=0;fontSize=10;align=left;fillColor=#E6E6E6;strokeColor=#f6f6f6;fontColor=#4D4D4D;fontStyle=0" parent="1" vertex="1">
          <mxGeometry x="822.5" y="1688" width="190" height="50" as="geometry" />
        </mxCell>
        <mxCell id="F3VjtBr4PxaRFsjkiNeD-5" value="&lt;font style=&quot;font-size: 24px;&quot;&gt;Img&lt;/font&gt;&amp;nbsp;" style="rounded=1;whiteSpace=wrap;html=1;strokeColor=#0099CC;fillColor=#999999;" parent="1" vertex="1">
          <mxGeometry x="978" y="291" width="405" height="216" as="geometry" />
        </mxCell>
        <mxCell id="F3VjtBr4PxaRFsjkiNeD-6" value="&lt;font style=&quot;font-size: 48px;&quot;&gt;Text&lt;/font&gt;" style="text;html=1;strokeColor=none;fillColor=none;align=center;verticalAlign=middle;whiteSpace=wrap;rounded=0;" parent="1" vertex="1">
          <mxGeometry x="1019.75" y="559" width="325.5" height="165" as="geometry" />
        </mxCell>
        <mxCell id="F3VjtBr4PxaRFsjkiNeD-8" style="edgeStyle=orthogonalEdgeStyle;rounded=0;orthogonalLoop=1;jettySize=auto;html=1;entryX=0.012;entryY=0.041;entryDx=0;entryDy=0;entryPerimeter=0;" parent="1" target="iwQ0EJzcMHtjXy3N9g5K-82" edge="1">
          <mxGeometry relative="1" as="geometry">
            <Array as="points">
              <mxPoint x="1000" y="966" />
              <mxPoint x="913" y="966" />
              <mxPoint x="913" y="84" />
            </Array>
            <mxPoint x="1000" y="920" as="sourcePoint" />
          </mxGeometry>
        </mxCell>
        <mxCell id="F3VjtBr4PxaRFsjkiNeD-15" value="&lt;font style=&quot;font-size: 18px;&quot;&gt;Weight (kg)&lt;/font&gt;" style="whiteSpace=wrap;html=1;shadow=0;dashed=0;fontSize=10;align=left;fillColor=#E6E6E6;strokeColor=#f6f6f6;fontColor=#4D4D4D;fontStyle=0" parent="1" vertex="1">
          <mxGeometry x="1385.5" y="1572.88" width="190" height="50" as="geometry" />
        </mxCell>
        <mxCell id="F3VjtBr4PxaRFsjkiNeD-16" value="&lt;font style=&quot;font-size: 18px;&quot;&gt;Week&lt;/font&gt;" style="strokeWidth=1;html=1;shadow=0;dashed=0;shape=mxgraph.android.action_bar;fillColor=#E6E6E6;strokeColor=#c0c0c0;strokeWidth=2;whiteSpace=wrap;" parent="1" vertex="1">
          <mxGeometry x="1385.5" y="1462" width="190" height="50" as="geometry" />
        </mxCell>
        <mxCell id="F3VjtBr4PxaRFsjkiNeD-18" value="&lt;font style=&quot;font-size: 18px;&quot;&gt;Trainings&lt;/font&gt;" style="whiteSpace=wrap;html=1;shadow=0;dashed=0;fontSize=10;align=left;fillColor=#E6E6E6;strokeColor=#f6f6f6;fontColor=#4D4D4D;fontStyle=0" parent="1" vertex="1">
          <mxGeometry x="1385.5" y="1688" width="190" height="50" as="geometry" />
        </mxCell>
        <mxCell id="F3VjtBr4PxaRFsjkiNeD-28" value="&lt;font style=&quot;font-size: 24px;&quot;&gt;Img&lt;/font&gt;&amp;nbsp;" style="rounded=1;whiteSpace=wrap;html=1;strokeColor=#0099CC;fillColor=#999999;" parent="1" vertex="1">
          <mxGeometry x="222.25" y="2924" width="262.5" height="148" as="geometry" />
        </mxCell>
        <mxCell id="F3VjtBr4PxaRFsjkiNeD-29" value="" style="verticalLabelPosition=bottom;verticalAlign=top;html=1;shadow=0;dashed=0;strokeWidth=1;strokeColor=none;shape=rect;fillColor=#0099cc;" parent="1" vertex="1">
          <mxGeometry x="129" y="2363" width="453" height="103" as="geometry" />
        </mxCell>
        <mxCell id="F3VjtBr4PxaRFsjkiNeD-30" value="" style="verticalLabelPosition=bottom;verticalAlign=top;html=1;shadow=0;dashed=0;strokeWidth=1;shape=mxgraph.android.phone2;strokeColor=#000000;" parent="1" vertex="1">
          <mxGeometry x="108" y="2276" width="491" height="961" as="geometry" />
        </mxCell>
        <mxCell id="F3VjtBr4PxaRFsjkiNeD-31" value="&lt;font style=&quot;font-size: 48px;&quot;&gt;Inspiration&lt;/font&gt;" style="text;html=1;align=center;verticalAlign=middle;resizable=0;points=[];autosize=1;strokeColor=none;fillColor=none;" parent="1" vertex="1">
          <mxGeometry x="234.5" y="2388" width="239" height="70" as="geometry" />
        </mxCell>
        <mxCell id="F3VjtBr4PxaRFsjkiNeD-32" value="&lt;font style=&quot;font-size: 24px;&quot;&gt;Img&lt;/font&gt;&amp;nbsp;" style="rounded=1;whiteSpace=wrap;html=1;strokeColor=#0099CC;fillColor=#999999;" parent="1" vertex="1">
          <mxGeometry x="224.25" y="2507" width="262.5" height="148" as="geometry" />
        </mxCell>
        <mxCell id="F3VjtBr4PxaRFsjkiNeD-33" value="" style="strokeWidth=1;html=1;shadow=0;dashed=0;shape=mxgraph.android.rrect;rSize=0;fillColor=#eeeeee;strokeColor=none;" parent="1" vertex="1">
          <mxGeometry x="129" y="3054" width="451" height="95" as="geometry" />
        </mxCell>
        <mxCell id="F3VjtBr4PxaRFsjkiNeD-34" value="" style="strokeWidth=1;html=1;shadow=0;dashed=0;shape=mxgraph.android.anchor;fontStyle=1;fontColor=#666666;" parent="F3VjtBr4PxaRFsjkiNeD-33" vertex="1">
          <mxGeometry width="88.57110609480812" height="95" as="geometry" />
        </mxCell>
        <mxCell id="F3VjtBr4PxaRFsjkiNeD-35" value="" style="strokeWidth=1;html=1;shadow=0;dashed=0;shape=mxgraph.android.anchor;fontStyle=1;fontColor=#666666;" parent="F3VjtBr4PxaRFsjkiNeD-33" vertex="1">
          <mxGeometry x="225.50000000000003" width="112.75000000000001" height="95" as="geometry" />
        </mxCell>
        <mxCell id="F3VjtBr4PxaRFsjkiNeD-36" value="" style="shape=line;strokeColor=#666666;direction=south;" parent="F3VjtBr4PxaRFsjkiNeD-33" vertex="1">
          <mxGeometry x="260.67637544994204" y="15.833333333333332" width="24.37837837837838" height="63.33333333333333" as="geometry" />
        </mxCell>
        <mxCell id="F3VjtBr4PxaRFsjkiNeD-37" value="" style="html=1;verticalLabelPosition=bottom;align=center;labelBackgroundColor=#ffffff;verticalAlign=top;strokeWidth=2;strokeColor=#0099CC;shadow=0;dashed=0;shape=mxgraph.ios7.icons.compose;" parent="F3VjtBr4PxaRFsjkiNeD-33" vertex="1">
          <mxGeometry x="193.12446240084745" y="26.57466666666668" width="70.54748603351956" height="39.931666666666665" as="geometry" />
        </mxCell>
        <mxCell id="F3VjtBr4PxaRFsjkiNeD-38" value="" style="html=1;verticalLabelPosition=bottom;align=center;labelBackgroundColor=#ffffff;verticalAlign=top;strokeWidth=2;strokeColor=#0099CC;shadow=0;dashed=0;shape=mxgraph.ios7.icons.user;" parent="F3VjtBr4PxaRFsjkiNeD-33" vertex="1">
          <mxGeometry x="285.0536181066119" y="28.48733333333332" width="80.62569832402235" height="38.019" as="geometry" />
        </mxCell>
        <mxCell id="F3VjtBr4PxaRFsjkiNeD-39" value="" style="shape=line;strokeColor=#666666;direction=south;" parent="F3VjtBr4PxaRFsjkiNeD-33" vertex="1">
          <mxGeometry x="360.99637544994204" y="15.833333333333332" width="24.37837837837838" height="63.33333333333333" as="geometry" />
        </mxCell>
        <mxCell id="F3VjtBr4PxaRFsjkiNeD-40" value="Tab 2" style="strokeWidth=1;html=1;shadow=0;dashed=0;shape=mxgraph.android.rrect;rSize=0;fontStyle=1;fillColor=#44c5f5;strokeColor=#0099CC;fontColor=#ffffff;" parent="F3VjtBr4PxaRFsjkiNeD-33" vertex="1">
          <mxGeometry x="88.57" width="95" height="95" as="geometry" />
        </mxCell>
        <mxCell id="F3VjtBr4PxaRFsjkiNeD-41" value="" style="strokeWidth=1;html=1;shadow=0;dashed=0;shape=mxgraph.android.rrect;rSize=0;fillColor=#33b5e5;strokeColor=none;" parent="F3VjtBr4PxaRFsjkiNeD-40" vertex="1">
          <mxGeometry y="85.5" width="95" height="9.5" as="geometry" />
        </mxCell>
        <mxCell id="ET9WmYhNgh9v48bkk3JD-6" value="" style="html=1;verticalLabelPosition=bottom;align=center;labelBackgroundColor=#ffffff;verticalAlign=top;strokeWidth=2;strokeColor=#0099CC;shadow=0;dashed=0;shape=mxgraph.ios7.icons.globe;" vertex="1" parent="F3VjtBr4PxaRFsjkiNeD-40">
          <mxGeometry x="22.500000000000057" y="17.289999999999964" width="50" height="60.43" as="geometry" />
        </mxCell>
        <mxCell id="F3VjtBr4PxaRFsjkiNeD-44" value="" style="html=1;verticalLabelPosition=bottom;align=center;labelBackgroundColor=#ffffff;verticalAlign=top;strokeWidth=2;strokeColor=#0099CC;shadow=0;dashed=0;shape=mxgraph.ios7.icons.home;" parent="F3VjtBr4PxaRFsjkiNeD-33" vertex="1">
          <mxGeometry x="20" y="23" width="47" height="46" as="geometry" />
        </mxCell>
        <mxCell id="ET9WmYhNgh9v48bkk3JD-8" value="" style="html=1;verticalLabelPosition=bottom;align=center;labelBackgroundColor=#ffffff;verticalAlign=top;strokeWidth=2;strokeColor=#0099CC;shadow=0;dashed=0;shape=mxgraph.ios7.icons.heart;" vertex="1" parent="F3VjtBr4PxaRFsjkiNeD-33">
          <mxGeometry x="387.9999999999998" y="23" width="53.63" height="52.19" as="geometry" />
        </mxCell>
        <mxCell id="F3VjtBr4PxaRFsjkiNeD-45" value="&lt;font style=&quot;font-size: 24px;&quot;&gt;Img&lt;/font&gt;&amp;nbsp;" style="rounded=1;whiteSpace=wrap;html=1;strokeColor=#0099CC;fillColor=#999999;" parent="1" vertex="1">
          <mxGeometry x="224.25" y="2728" width="262.5" height="148" as="geometry" />
        </mxCell>
        <mxCell id="F3VjtBr4PxaRFsjkiNeD-46" value="&lt;font style=&quot;font-size: 18px;&quot;&gt;Squats&lt;/font&gt;" style="whiteSpace=wrap;html=1;shadow=0;dashed=0;fontSize=10;align=left;fillColor=#006699;strokeColor=#33B5E5;fontColor=#FFFFFF;" parent="1" vertex="1">
          <mxGeometry x="234.5" y="2663" width="250.5" height="16.88" as="geometry" />
        </mxCell>
        <mxCell id="F3VjtBr4PxaRFsjkiNeD-47" value="&lt;font style=&quot;font-size: 18px;&quot;&gt;Pull ups&lt;/font&gt;" style="whiteSpace=wrap;html=1;shadow=0;dashed=0;fontSize=10;align=left;fillColor=#006699;strokeColor=#33B5E5;fontColor=#FFFFFF;" parent="1" vertex="1">
          <mxGeometry x="228.25" y="2881" width="250.5" height="16.88" as="geometry" />
        </mxCell>
        <mxCell id="F3VjtBr4PxaRFsjkiNeD-50" value="" style="verticalLabelPosition=bottom;verticalAlign=top;html=1;shadow=0;dashed=0;strokeWidth=1;shape=mxgraph.android.indeterminateSpinner;" parent="1" vertex="1">
          <mxGeometry x="244.5" y="1650" width="200" height="200" as="geometry" />
        </mxCell>
        <mxCell id="F3VjtBr4PxaRFsjkiNeD-51" style="edgeStyle=orthogonalEdgeStyle;rounded=0;orthogonalLoop=1;jettySize=auto;html=1;" parent="1" edge="1">
          <mxGeometry relative="1" as="geometry">
            <mxPoint x="343.97058823529403" y="2130" as="sourcePoint" />
            <mxPoint x="344.5" y="2271" as="targetPoint" />
          </mxGeometry>
        </mxCell>
        <mxCell id="F3VjtBr4PxaRFsjkiNeD-52" value="&lt;font style=&quot;font-size: 48px;&quot;&gt;Firebase&lt;/font&gt;" style="shape=datastore;whiteSpace=wrap;html=1;" parent="1" vertex="1">
          <mxGeometry x="1056" y="2309.88" width="287" height="370" as="geometry" />
        </mxCell>
        <mxCell id="F3VjtBr4PxaRFsjkiNeD-55" value="" style="verticalLabelPosition=bottom;verticalAlign=top;html=1;shadow=0;dashed=0;strokeWidth=1;strokeColor=none;shape=rect;fillColor=#0099cc;" parent="1" vertex="1">
          <mxGeometry x="1824" y="2363" width="453" height="97" as="geometry" />
        </mxCell>
        <mxCell id="F3VjtBr4PxaRFsjkiNeD-56" value="" style="verticalLabelPosition=bottom;verticalAlign=top;html=1;shadow=0;dashed=0;strokeWidth=1;shape=mxgraph.android.phone2;strokeColor=#000000;" parent="1" vertex="1">
          <mxGeometry x="1803" y="2276" width="491" height="961" as="geometry" />
        </mxCell>
        <mxCell id="F3VjtBr4PxaRFsjkiNeD-57" value="&lt;font style=&quot;font-size: 48px;&quot;&gt;Statistics&lt;/font&gt;" style="text;html=1;align=center;verticalAlign=middle;resizable=0;points=[];autosize=1;strokeColor=none;fillColor=none;" parent="1" vertex="1">
          <mxGeometry x="1943.5" y="2388" width="210" height="70" as="geometry" />
        </mxCell>
        <mxCell id="F3VjtBr4PxaRFsjkiNeD-58" value="" style="strokeWidth=1;html=1;shadow=0;dashed=0;shape=mxgraph.android.rrect;rSize=0;fillColor=#eeeeee;strokeColor=none;" parent="1" vertex="1">
          <mxGeometry x="1824" y="3052" width="451" height="99" as="geometry" />
        </mxCell>
        <mxCell id="F3VjtBr4PxaRFsjkiNeD-59" value="Tab 2" style="strokeWidth=1;html=1;shadow=0;dashed=0;shape=mxgraph.android.rrect;rSize=0;fontStyle=1;fillColor=#44c5f5;strokeColor=none;fontColor=#ffffff;" parent="F3VjtBr4PxaRFsjkiNeD-58" vertex="1">
          <mxGeometry x="372" y="-1.0032" width="79" height="99" as="geometry" />
        </mxCell>
        <mxCell id="F3VjtBr4PxaRFsjkiNeD-60" value="" style="strokeWidth=1;html=1;shadow=0;dashed=0;shape=mxgraph.android.rrect;rSize=0;fillColor=#33b5e5;strokeColor=none;" parent="F3VjtBr4PxaRFsjkiNeD-59" vertex="1">
          <mxGeometry y="89.10000000000001" width="79" height="9.9" as="geometry" />
        </mxCell>
        <mxCell id="ET9WmYhNgh9v48bkk3JD-9" value="" style="html=1;verticalLabelPosition=bottom;align=center;labelBackgroundColor=#ffffff;verticalAlign=top;strokeWidth=2;strokeColor=#0099CC;shadow=0;dashed=0;shape=mxgraph.ios7.icons.heart;" vertex="1" parent="F3VjtBr4PxaRFsjkiNeD-59">
          <mxGeometry x="10.6899999999996" y="23.453199999999924" width="53.63" height="52.19" as="geometry" />
        </mxCell>
        <mxCell id="F3VjtBr4PxaRFsjkiNeD-61" value="" style="strokeWidth=1;html=1;shadow=0;dashed=0;shape=mxgraph.android.anchor;fontStyle=1;fontColor=#666666;" parent="F3VjtBr4PxaRFsjkiNeD-58" vertex="1">
          <mxGeometry width="88.57110609480812" height="99" as="geometry" />
        </mxCell>
        <mxCell id="F3VjtBr4PxaRFsjkiNeD-62" value="" style="strokeWidth=1;html=1;shadow=0;dashed=0;shape=mxgraph.android.anchor;fontStyle=1;fontColor=#666666;" parent="F3VjtBr4PxaRFsjkiNeD-58" vertex="1">
          <mxGeometry x="225.50000000000003" width="112.75000000000001" height="99" as="geometry" />
        </mxCell>
        <mxCell id="F3VjtBr4PxaRFsjkiNeD-63" value="" style="shape=line;strokeColor=#666666;direction=south;" parent="F3VjtBr4PxaRFsjkiNeD-58" vertex="1">
          <mxGeometry x="73.62637544994205" y="15.4968" width="24.37837837837838" height="66" as="geometry" />
        </mxCell>
        <mxCell id="F3VjtBr4PxaRFsjkiNeD-64" value="" style="html=1;verticalLabelPosition=bottom;align=center;labelBackgroundColor=#ffffff;verticalAlign=top;strokeWidth=2;strokeColor=#0099CC;shadow=0;dashed=0;shape=mxgraph.ios7.icons.user;" parent="F3VjtBr4PxaRFsjkiNeD-58" vertex="1">
          <mxGeometry x="285.0536181066119" y="29.68679999999999" width="80.62569832402235" height="39.619800000000005" as="geometry" />
        </mxCell>
        <mxCell id="F3VjtBr4PxaRFsjkiNeD-65" value="" style="shape=line;strokeColor=#666666;direction=south;" parent="F3VjtBr4PxaRFsjkiNeD-58" vertex="1">
          <mxGeometry x="256.99637544994204" y="15.4968" width="24.37837837837838" height="66" as="geometry" />
        </mxCell>
        <mxCell id="F3VjtBr4PxaRFsjkiNeD-68" value="" style="html=1;verticalLabelPosition=bottom;align=center;labelBackgroundColor=#ffffff;verticalAlign=top;strokeWidth=2;strokeColor=#0099CC;shadow=0;dashed=0;shape=mxgraph.ios7.icons.compose;" parent="F3VjtBr4PxaRFsjkiNeD-58" vertex="1">
          <mxGeometry x="190.22446240084747" y="28.683600000000016" width="70.54748603351956" height="41.613" as="geometry" />
        </mxCell>
        <mxCell id="F3VjtBr4PxaRFsjkiNeD-69" value="" style="shape=line;strokeColor=#666666;direction=south;" parent="F3VjtBr4PxaRFsjkiNeD-58" vertex="1">
          <mxGeometry x="165.846375449942" y="15.496800000000013" width="24.37837837837838" height="66" as="geometry" />
        </mxCell>
        <mxCell id="F3VjtBr4PxaRFsjkiNeD-70" value="" style="html=1;verticalLabelPosition=bottom;align=center;labelBackgroundColor=#ffffff;verticalAlign=top;strokeWidth=2;strokeColor=#0099CC;shadow=0;dashed=0;shape=mxgraph.ios7.icons.home;" parent="F3VjtBr4PxaRFsjkiNeD-58" vertex="1">
          <mxGeometry x="9" y="29.690000000000055" width="47" height="46" as="geometry" />
        </mxCell>
        <mxCell id="ET9WmYhNgh9v48bkk3JD-3" value="" style="html=1;verticalLabelPosition=bottom;align=center;labelBackgroundColor=#ffffff;verticalAlign=top;strokeWidth=2;strokeColor=#0099CC;shadow=0;dashed=0;shape=mxgraph.ios7.icons.globe;" vertex="1" parent="F3VjtBr4PxaRFsjkiNeD-58">
          <mxGeometry x="103" y="21.070000000000164" width="50" height="60.43" as="geometry" />
        </mxCell>
        <mxCell id="F3VjtBr4PxaRFsjkiNeD-71" value="" style="endArrow=classic;html=1;rounded=0;" parent="1" edge="1">
          <mxGeometry width="50" height="50" relative="1" as="geometry">
            <mxPoint x="1943.5" y="2680" as="sourcePoint" />
            <mxPoint x="2091.5" y="2677" as="targetPoint" />
          </mxGeometry>
        </mxCell>
        <mxCell id="F3VjtBr4PxaRFsjkiNeD-72" value="" style="endArrow=classic;html=1;rounded=0;" parent="1" edge="1">
          <mxGeometry width="50" height="50" relative="1" as="geometry">
            <mxPoint x="1950.5" y="2693" as="sourcePoint" />
            <mxPoint x="1950.5" y="2567" as="targetPoint" />
          </mxGeometry>
        </mxCell>
        <mxCell id="F3VjtBr4PxaRFsjkiNeD-73" value="" style="endArrow=none;dashed=1;html=1;dashPattern=1 3;strokeWidth=2;rounded=0;" parent="1" edge="1">
          <mxGeometry width="50" height="50" relative="1" as="geometry">
            <mxPoint x="1965.5" y="2661" as="sourcePoint" />
            <mxPoint x="2070.5" y="2633" as="targetPoint" />
          </mxGeometry>
        </mxCell>
        <mxCell id="F3VjtBr4PxaRFsjkiNeD-74" value="" style="endArrow=classic;html=1;rounded=0;" parent="1" edge="1">
          <mxGeometry width="50" height="50" relative="1" as="geometry">
            <mxPoint x="1943.5" y="2921" as="sourcePoint" />
            <mxPoint x="2091.5" y="2918" as="targetPoint" />
          </mxGeometry>
        </mxCell>
        <mxCell id="F3VjtBr4PxaRFsjkiNeD-75" value="" style="endArrow=classic;html=1;rounded=0;" parent="1" edge="1">
          <mxGeometry width="50" height="50" relative="1" as="geometry">
            <mxPoint x="1950.5" y="2934" as="sourcePoint" />
            <mxPoint x="1950.5" y="2808" as="targetPoint" />
          </mxGeometry>
        </mxCell>
        <mxCell id="F3VjtBr4PxaRFsjkiNeD-76" value="" style="endArrow=none;dashed=1;html=1;dashPattern=1 3;strokeWidth=2;rounded=0;" parent="1" edge="1">
          <mxGeometry width="50" height="50" relative="1" as="geometry">
            <mxPoint x="1965.5" y="2902" as="sourcePoint" />
            <mxPoint x="2070.5" y="2874" as="targetPoint" />
          </mxGeometry>
        </mxCell>
        <mxCell id="F3VjtBr4PxaRFsjkiNeD-77" value="&lt;font style=&quot;font-size: 18px;&quot;&gt;Weight statistics&lt;/font&gt;" style="whiteSpace=wrap;html=1;shadow=0;dashed=0;fontSize=10;align=left;fillColor=#006699;strokeColor=#33B5E5;fontColor=#FFFFFF;" parent="1" vertex="1">
          <mxGeometry x="1940" y="2503" width="175" height="29" as="geometry" />
        </mxCell>
        <mxCell id="F3VjtBr4PxaRFsjkiNeD-78" value="&lt;font style=&quot;font-size: 18px;&quot;&gt;Training statistics&lt;/font&gt;" style="whiteSpace=wrap;html=1;shadow=0;dashed=0;fontSize=10;align=left;fillColor=#006699;strokeColor=#33B5E5;fontColor=#FFFFFF;" parent="1" vertex="1">
          <mxGeometry x="1943.5" y="2760" width="183.5" height="30" as="geometry" />
        </mxCell>
        <mxCell id="F3VjtBr4PxaRFsjkiNeD-80" value="" style="verticalLabelPosition=bottom;verticalAlign=top;html=1;shadow=0;dashed=0;strokeWidth=1;shape=mxgraph.android.indeterminateSpinner;" parent="1" vertex="1">
          <mxGeometry x="1946.5" y="1528" width="200" height="200" as="geometry" />
        </mxCell>
        <mxCell id="F3VjtBr4PxaRFsjkiNeD-86" style="edgeStyle=orthogonalEdgeStyle;rounded=0;orthogonalLoop=1;jettySize=auto;html=1;" parent="1" source="iwQ0EJzcMHtjXy3N9g5K-63" edge="1">
          <mxGeometry relative="1" as="geometry">
            <mxPoint x="1099" y="2319" as="targetPoint" />
          </mxGeometry>
        </mxCell>
        <mxCell id="F3VjtBr4PxaRFsjkiNeD-87" style="edgeStyle=orthogonalEdgeStyle;rounded=0;orthogonalLoop=1;jettySize=auto;html=1;" parent="1" source="iwQ0EJzcMHtjXy3N9g5K-118" edge="1">
          <mxGeometry relative="1" as="geometry">
            <mxPoint x="1300" y="2318" as="targetPoint" />
          </mxGeometry>
        </mxCell>
        <mxCell id="F3VjtBr4PxaRFsjkiNeD-89" style="edgeStyle=orthogonalEdgeStyle;rounded=0;orthogonalLoop=1;jettySize=auto;html=1;entryX=0.492;entryY=-0.002;entryDx=0;entryDy=0;entryPerimeter=0;exitX=0.305;exitY=1.025;exitDx=0;exitDy=0;exitPerimeter=0;" parent="1" source="iwQ0EJzcMHtjXy3N9g5K-86" target="iwQ0EJzcMHtjXy3N9g5K-1" edge="1">
          <mxGeometry relative="1" as="geometry">
            <mxPoint x="340" y="1157" as="targetPoint" />
            <Array as="points">
              <mxPoint x="1094" y="1046" />
              <mxPoint x="341" y="1046" />
            </Array>
            <mxPoint x="1094" y="924" as="sourcePoint" />
          </mxGeometry>
        </mxCell>
        <mxCell id="F3VjtBr4PxaRFsjkiNeD-91" style="edgeStyle=orthogonalEdgeStyle;rounded=0;orthogonalLoop=1;jettySize=auto;html=1;" parent="1" source="iwQ0EJzcMHtjXy3N9g5K-86" edge="1">
          <mxGeometry relative="1" as="geometry">
            <mxPoint x="930" y="1167" as="targetPoint" />
            <Array as="points">
              <mxPoint x="1182" y="1106" />
              <mxPoint x="930" y="1106" />
            </Array>
          </mxGeometry>
        </mxCell>
        <mxCell id="F3VjtBr4PxaRFsjkiNeD-92" style="edgeStyle=orthogonalEdgeStyle;rounded=0;orthogonalLoop=1;jettySize=auto;html=1;" parent="1" edge="1">
          <mxGeometry relative="1" as="geometry">
            <mxPoint x="1282" y="919" as="sourcePoint" />
            <mxPoint x="1481" y="1179" as="targetPoint" />
            <Array as="points">
              <mxPoint x="1282" y="924" />
              <mxPoint x="1283" y="924" />
              <mxPoint x="1283" y="1112" />
              <mxPoint x="1481" y="1112" />
            </Array>
          </mxGeometry>
        </mxCell>
        <mxCell id="F3VjtBr4PxaRFsjkiNeD-93" style="edgeStyle=orthogonalEdgeStyle;rounded=0;orthogonalLoop=1;jettySize=auto;html=1;" parent="1" edge="1">
          <mxGeometry relative="1" as="geometry">
            <mxPoint x="1367.0032258064516" y="918.9962666666667" as="sourcePoint" />
            <mxPoint x="2046" y="1171" as="targetPoint" />
            <Array as="points">
              <mxPoint x="1367" y="1053" />
              <mxPoint x="2046" y="1053" />
            </Array>
          </mxGeometry>
        </mxCell>
        <mxCell id="F3VjtBr4PxaRFsjkiNeD-95" value="&lt;span style=&quot;font-size: 18px;&quot;&gt;Progress image&lt;/span&gt;" style="whiteSpace=wrap;html=1;shadow=0;dashed=0;fontSize=10;align=left;fillColor=#E6E6E6;strokeColor=#f6f6f6;fontColor=#4D4D4D;fontStyle=0" parent="1" vertex="1">
          <mxGeometry x="1387.5" y="1776" width="190" height="50" as="geometry" />
        </mxCell>
        <mxCell id="F3VjtBr4PxaRFsjkiNeD-94" value="" style="html=1;verticalLabelPosition=bottom;align=center;labelBackgroundColor=#ffffff;verticalAlign=top;strokeWidth=2;strokeColor=#0099CC;shadow=0;dashed=0;shape=mxgraph.ios7.icons.camera;" parent="1" vertex="1">
          <mxGeometry x="1521" y="1776" width="52" height="44" as="geometry" />
        </mxCell>
        <mxCell id="fd5OxOI2mBh47nlc_oR5-1" style="edgeStyle=orthogonalEdgeStyle;rounded=0;orthogonalLoop=1;jettySize=auto;html=1;entryX=0.496;entryY=-0.003;entryDx=0;entryDy=0;entryPerimeter=0;" parent="1" source="iwQ0EJzcMHtjXy3N9g5K-99" target="F3VjtBr4PxaRFsjkiNeD-56" edge="1">
          <mxGeometry relative="1" as="geometry" />
        </mxCell>
      </root>
    </mxGraphModel>
  </diagram>
</mxfile>
